<svg xmlns="http://www.w3.org/2000/svg" width="32" height="27.987" viewBox="0 0 32 27.987"><defs><style>.a{fill:#aaa;}</style></defs><g transform="translate(0 -32.08)"><path class="a" d="M30.315,41.221a5.688,5.688,0,0,0-3.133-1.576,5.623,5.623,0,0,0-8.509-3.916,7.512,7.512,0,0,0-2.162-2.315A7.423,7.423,0,0,0,12.25,32.08a7.509,7.509,0,0,0-7.5,7.5q0,.039,0,.077a5.689,5.689,0,0,0-3.066,1.565,5.551,5.551,0,0,0,0,7.967,5.683,5.683,0,0,0,4,1.642H7.14L6.2,53.309l1.752.667,1.2-3.146h3.619l-.944,2.479,1.752.667,1.2-3.146H18.39l-.944,2.479,1.752.667,1.2-3.146h3.619l-.944,2.479,1.752.667,1.2-3.146h.291a5.683,5.683,0,0,0,4-1.642,5.552,5.552,0,0,0,0-7.967Zm-4,7.733H5.688a3.751,3.751,0,1,1,0-7.5H6.864L6.7,40.291a5.078,5.078,0,0,1-.071-.711,5.617,5.617,0,0,1,10.846-2.06l.52,1.316L19,37.845a3.746,3.746,0,0,1,6.375,2.673v.938h.938a3.751,3.751,0,1,1,0,7.5Z"/><path class="a" d="M0,0H4.515V1.875H0Z" transform="translate(7.638 59.399) rotate(-69.156)"/><path class="a" d="M0,0H4.514V1.875H0Z" transform="translate(13.263 59.396) rotate(-69.156)"/><path class="a" d="M0,0H4.514V1.875H0Z" transform="translate(18.888 59.393) rotate(-69.156)"/></g></svg>