<svg xmlns="http://www.w3.org/2000/svg" width="32" height="23.525" viewBox="0 0 32 23.525"><defs><style>.a{fill:#aaa;}</style></defs><g transform="translate(0 -0.105)"><path class="a" d="M22.347,184.418H0v1.425H22.343a2.935,2.935,0,0,1,2.072.865,2.222,2.222,0,0,1,0,3.14,1.636,1.636,0,0,1-2.31,0,1.166,1.166,0,0,1,0-1.647L21.1,187.193a2.592,2.592,0,0,0,0,3.661,3.062,3.062,0,0,0,4.325,0,3.649,3.649,0,0,0,0-5.155A4.354,4.354,0,0,0,22.347,184.418Zm0,0" transform="translate(0 -171.183)"/><path class="a" d="M66.9,244.508H60v1.425h6.9a2.183,2.183,0,0,1,1.542.644,1.617,1.617,0,0,1,0,2.285,1.15,1.15,0,0,1-1.626,0,.779.779,0,0,1,0-1.1l-1.008-1.008a2.2,2.2,0,0,0,0,3.115,2.575,2.575,0,0,0,3.641,0,3.044,3.044,0,0,0,0-4.3A3.6,3.6,0,0,0,66.9,244.508Zm0,0" transform="translate(-55.726 -226.992)"/><path class="a" d="M117.822,5.158a3.044,3.044,0,0,0,0-4.3,2.577,2.577,0,0,0-3.641,0,2.2,2.2,0,0,0,0,3.114l1.007-1.007a.779.779,0,0,1,0-1.1,1.152,1.152,0,0,1,1.626,0,1.617,1.617,0,0,1,0,2.285,2.181,2.181,0,0,1-1.537.644H104V6.219h11.281A3.6,3.6,0,0,0,117.822,5.158Zm0,0" transform="translate(-96.591)"/><path class="a" d="M71.175,35.743a2.756,2.756,0,0,0,0,3.9l1.008-1.008a1.331,1.331,0,0,1,0-1.882,1.844,1.844,0,0,1,2.6,0,2.483,2.483,0,0,1,0,3.508,3.257,3.257,0,0,1-2.3.96H48.383v1.425H72.5a4.677,4.677,0,0,0,3.3-1.377,3.91,3.91,0,0,0,0-5.523A3.27,3.27,0,0,0,71.175,35.743Zm0,0" transform="translate(-44.936 -32.212)"/></g></svg>